<?xml version="1.0" encoding="utf-8"?>
<!-- Generator: Adobe Illustrator 19.0.0, SVG Export Plug-In . SVG Version: 6.00 Build 0)  -->
<svg version="1.1" id="Layer_1" xmlns="http://www.w3.org/2000/svg" xmlns:xlink="http://www.w3.org/1999/xlink" x="0px" y="0px"
	 viewBox="0 0 1088.6 1037.2" style="enable-background:new 0 0 1088.6 1037.2;" xml:space="preserve">
<style type="text/css">
	.st0{clip-path:url(#SVGID_2_);}
	.st1{opacity:0.36;clip-path:url(#SVGID_4_);}
	.st2{clip-path:url(#SVGID_6_);fill:#0C0823;}
	.st3{clip-path:url(#SVGID_4_);fill:#E2E2E2;}
	.st4{clip-path:url(#SVGID_4_);fill:#FFFFFF;}
	.st5{clip-path:url(#SVGID_8_);fill:url(#SVGID_9_);}
	.st6{clip-path:url(#SVGID_11_);fill:#FFFFFF;}
	.st7{clip-path:url(#SVGID_13_);fill:url(#SVGID_14_);}
	.st8{clip-path:url(#SVGID_16_);fill:url(#SVGID_17_);}
	.st9{clip-path:url(#SVGID_19_);fill:url(#SVGID_20_);}
	.st10{clip-path:url(#SVGID_22_);fill:url(#SVGID_23_);}
	.st11{clip-path:url(#SVGID_25_);fill:url(#SVGID_26_);}
	.st12{clip-path:url(#SVGID_28_);fill:#002152;}
	.st13{clip-path:url(#SVGID_30_);fill:url(#SVGID_31_);}
	.st14{clip-path:url(#SVGID_33_);fill:url(#SVGID_34_);}
	.st15{clip-path:url(#SVGID_36_);fill:url(#SVGID_37_);}
	.st16{clip-path:url(#SVGID_39_);fill:url(#SVGID_40_);}
	.st17{clip-path:url(#SVGID_42_);fill:url(#SVGID_43_);}
	.st18{clip-path:url(#SVGID_45_);fill:url(#SVGID_46_);}
	.st19{clip-path:url(#SVGID_48_);fill:#002152;}
	.st20{clip-path:url(#SVGID_48_);fill:#0C3879;}
	.st21{clip-path:url(#SVGID_50_);fill:url(#SVGID_51_);}
	.st22{clip-path:url(#SVGID_53_);fill:url(#SVGID_54_);}
	.st23{clip-path:url(#SVGID_56_);fill:url(#SVGID_57_);}
	.st24{clip-path:url(#SVGID_59_);fill:url(#SVGID_60_);}
	.st25{clip-path:url(#SVGID_62_);fill:url(#SVGID_63_);}
	.st26{clip-path:url(#SVGID_65_);fill:url(#SVGID_66_);}
	.st27{clip-path:url(#SVGID_68_);fill:#FFFFFF;}
	.st28{clip-path:url(#SVGID_70_);fill:url(#SVGID_71_);}
	.st29{clip-path:url(#SVGID_73_);fill:url(#SVGID_74_);}
	.st30{clip-path:url(#SVGID_76_);fill:url(#SVGID_77_);}
	.st31{clip-path:url(#SVGID_79_);fill:url(#SVGID_80_);}
	.st32{clip-path:url(#SVGID_82_);fill:url(#SVGID_83_);}
	.st33{clip-path:url(#SVGID_85_);fill:url(#SVGID_86_);}
	.st34{clip-path:url(#SVGID_88_);fill:#002152;}
	.st35{clip-path:url(#SVGID_90_);fill:url(#SVGID_91_);}
	.st36{clip-path:url(#SVGID_93_);fill:url(#SVGID_94_);}
	.st37{clip-path:url(#SVGID_96_);fill:url(#SVGID_97_);}
	.st38{clip-path:url(#SVGID_99_);fill:#002152;}
	.st39{clip-path:url(#SVGID_101_);fill:url(#SVGID_102_);}
	.st40{clip-path:url(#SVGID_104_);fill:#FFFFFF;}
	.st41{clip-path:url(#SVGID_104_);fill:#002152;}
	.st42{clip-path:url(#SVGID_106_);fill:url(#SVGID_107_);}
	.st43{clip-path:url(#SVGID_109_);fill:#BA0108;}
	.st44{clip-path:url(#SVGID_111_);fill:url(#SVGID_112_);}
	.st45{clip-path:url(#SVGID_114_);fill:url(#SVGID_115_);}
	.st46{clip-path:url(#SVGID_117_);fill:#FCD846;}
	.st47{clip-path:url(#SVGID_117_);fill:#EDF6FB;}
	.st48{clip-path:url(#SVGID_117_);fill:#E5A91F;}
	.st49{clip-path:url(#SVGID_117_);fill:#FFFFFF;}
</style>
<g>
	<defs>
		<rect id="SVGID_1_" width="1088.6" height="1037.2"/>
	</defs>
	<clipPath id="SVGID_2_">
		<use xlink:href="#SVGID_1_"  style="overflow:visible;"/>
	</clipPath>
	<g class="st0">
		<defs>
			<rect id="SVGID_3_" width="1088.6" height="1037.2"/>
		</defs>
		<clipPath id="SVGID_4_">
			<use xlink:href="#SVGID_3_"  style="overflow:visible;"/>
		</clipPath>
		<g class="st1">
			<g>
				<defs>
					<rect id="SVGID_5_" y="931.7" width="1088.6" height="105.5"/>
				</defs>
				<clipPath id="SVGID_6_">
					<use xlink:href="#SVGID_5_"  style="overflow:visible;"/>
				</clipPath>
				<path class="st2" d="M1088.6,984.5c0,29.1-243.7,52.7-544.3,52.7C243.7,1037.2,0,1013.6,0,984.5s243.7-52.7,544.3-52.7
					C844.9,931.7,1088.6,955.3,1088.6,984.5"/>
			</g>
		</g>
		<path class="st3" d="M799.6,372.4c-0.1,0-0.2,0-0.3,0c-0.6-0.1-3.4-0.7-6.3-4.9c-6.4-9.5-10.9-34.4,4.4-99.5
			c22.2-94.5,9.5-110.7,9.4-110.9c-0.9-0.9-0.8-2.3,0-3.2c0.9-0.9,2.3-0.8,3.2,0c1.5,1.6,14.5,18.3-8.2,115
			c-15.7,66.9-9.9,88.9-5.1,96c1.7,2.5,3.2,2.9,3.2,2.9c1.2,0.2,2.1,1.3,1.9,2.5C801.7,371.6,800.7,372.4,799.6,372.4"/>
		<rect x="808.5" y="0" class="st4" width="2.5" height="19.2"/>
		
			<rect x="847.9" y="21.2" transform="matrix(-0.5 0.866 -0.866 -0.5 1305.6261 -708.9804)" class="st4" width="19.2" height="2.5"/>
		
			<rect x="882.9" y="56.2" transform="matrix(-0.866 0.5 -0.5 -0.866 1694.0654 -339.1414)" class="st4" width="19.2" height="2.5"/>
		<rect x="895.7" y="104" class="st4" width="19.2" height="2.5"/>
		
			<rect x="891.2" y="143.4" transform="matrix(-0.4997 0.8662 -0.8662 -0.4997 1470.9928 -543.5818)" class="st4" width="2.5" height="19.2"/>
		
			<rect x="717.3" y="151.8" transform="matrix(-0.866 0.5001 -0.5001 -0.866 1432.9011 -77.9899)" class="st4" width="19.2" height="2.5"/>
		<rect x="704.5" y="104" class="st4" width="19.2" height="2.5"/>
		
			<rect x="725.7" y="47.8" transform="matrix(-0.4994 0.8664 -0.8664 -0.4994 1139.6589 -543.6807)" class="st4" width="2.5" height="19.2"/>
		
			<rect x="760.7" y="12.8" transform="matrix(-0.8662 0.4997 -0.4997 -0.8662 1433.0316 -338.8941)" class="st4" width="2.5" height="19.2"/>
		<path class="st4" d="M800.6,225.3h18.1c6.7,0,12.8-4.2,13.7-9.9l4.8-28.9h-55l4.8,28.9C787.9,221.1,794,225.3,800.6,225.3"/>
		<polygon class="st3" points="776.7,193.4 842.7,193.4 844.1,186.5 775.3,186.5 		"/>
		<polygon class="st3" points="778.8,203.7 840.6,203.7 841.8,197.6 777.6,197.6 		"/>
		<polygon class="st3" points="780.7,212.7 838.7,212.7 839.8,207.4 779.6,207.4 		"/>
	</g>
	<g class="st0">
		<defs>
			<path id="SVGID_7_" d="M742.2,119c0,37.3,30.2,67.5,67.5,67.5c37.3,0,67.5-30.2,67.5-67.5c0-37.3-30.2-67.5-67.5-67.5
				C772.4,51.5,742.2,81.7,742.2,119"/>
		</defs>
		<clipPath id="SVGID_8_">
			<use xlink:href="#SVGID_7_"  style="overflow:visible;"/>
		</clipPath>
		
			<linearGradient id="SVGID_9_" gradientUnits="userSpaceOnUse" x1="4.522581e-007" y1="1037.22" x2="1" y2="1037.22" gradientTransform="matrix(134.9565 0 0 -134.9565 742.2089 140098.5625)">
			<stop  offset="0" style="stop-color:#FFE75C"/>
			<stop  offset="1" style="stop-color:#FF2A00"/>
		</linearGradient>
		<rect x="742.2" y="51.5" class="st5" width="135" height="135"/>
	</g>
	<g class="st0">
		<defs>
			<rect id="SVGID_10_" width="1088.6" height="1037.2"/>
		</defs>
		<clipPath id="SVGID_11_">
			<use xlink:href="#SVGID_10_"  style="overflow:visible;"/>
		</clipPath>
		<path class="st6" d="M797.4,179.4l3.2-1.3l-21-50.9c1.6-1.8,6.1-6.3,10.6-5.9c2.8,0.2,5.2,2.4,7.3,6.4l1.1,2.1l1.7-1.8
			c1.9-2,8-7.1,12.8-6.3c2.4,0.4,4.5,2.4,6,5.8l1.1,2.4l1.8-1.9c1.9-2,7.9-7.1,12.5-6.3c2.2,0.4,4,2.1,5.5,5.2l-17.4,51.3l3.3,1.1
			l17.9-52.5l-0.3-0.6c-1.9-4.6-4.7-7.2-8.3-7.8c-5.5-1-11.1,3.2-13.9,5.7c-1.9-3.2-4.4-5.1-7.5-5.7c-5.7-1-11.5,3.3-14.2,5.8
			c-2.5-3.8-5.5-5.9-8.9-6.2c-7.5-0.7-14,7.6-14.3,7.9l-0.6,0.8L797.4,179.4z"/>
		<path class="st6" d="M854.1,94.2c1.1,0,2.2-0.3,3.3-1c2.8-1.8,3.6-5.5,1.8-8.4c-28.4-44.5-75.8-22-76.2-21.8
			c-3,1.5-4.3,5.1-2.8,8.1c1.5,3,5.1,4.3,8.1,2.8c1.5-0.7,38.2-17.9,60.7,17.4C850.2,93.2,852.1,94.2,854.1,94.2"/>
		<path class="st6" d="M865.1,134.6c2.2,0,4.4-1.2,5.4-3.3c8.7-17.4-5-32.7-5.6-33.3c-2.3-2.5-6.1-2.7-8.6-0.4
			c-2.5,2.2-2.7,6.1-0.4,8.5c0.4,0.4,8.6,9.9,3.7,19.8c-1.5,3-0.3,6.6,2.7,8.1C863.2,134.4,864.2,134.6,865.1,134.6"/>
	</g>
	<g class="st0">
		<defs>
			<path id="SVGID_12_" d="M792.4,643.4l-113.5,5.1c-2.8,0.1-5,2.5-4.9,5.3l3.4,75.6c0.1,2.8,2.5,5,5.3,4.9l113.5-5.1
				c2.8-0.1,5-2.5,4.9-5.3l-3.4-75.6c-0.1-2.7-2.4-4.9-5.1-4.9C792.5,643.4,792.5,643.4,792.4,643.4"/>
		</defs>
		<clipPath id="SVGID_13_">
			<use xlink:href="#SVGID_12_"  style="overflow:visible;"/>
		</clipPath>
		
			<linearGradient id="SVGID_14_" gradientUnits="userSpaceOnUse" x1="-9.568219e-004" y1="1037.2195" x2="0.999" y2="1037.2195" gradientTransform="matrix(127.1324 0 0 -127.1324 673.9806 132553.1094)">
			<stop  offset="0" style="stop-color:#FFE75C"/>
			<stop  offset="1" style="stop-color:#FF2A00"/>
		</linearGradient>
		<rect x="673.9" y="643.4" class="st7" width="127.4" height="91"/>
	</g>
	<g class="st0">
		<defs>
			
				<rect id="SVGID_15_" x="737.2" y="623.7" transform="matrix(-4.514590e-002 -0.999 0.999 -4.514590e-002 86.7798 1453.1896)" width="1.4" height="122.8"/>
		</defs>
		<clipPath id="SVGID_16_">
			<use xlink:href="#SVGID_15_"  style="overflow:visible;"/>
		</clipPath>
		
			<linearGradient id="SVGID_17_" gradientUnits="userSpaceOnUse" x1="0" y1="1037.22" x2="1" y2="1037.22" gradientTransform="matrix(122.7727 0 0 -122.7727 676.504 128027.4297)">
			<stop  offset="0" style="stop-color:#FFE75C"/>
			<stop  offset="1" style="stop-color:#FF2A00"/>
		</linearGradient>
		<rect x="676.5" y="681.6" class="st8" width="122.8" height="7"/>
	</g>
	<g class="st0">
		<defs>
			<path id="SVGID_18_" d="M716.7,639.4c-0.2-3.4,2.4-6.4,5.9-6.6h0l22.5-1.2c3.5-0.2,6.5,2.5,6.6,6l1,17.8l-35.1,1.9L716.7,639.4z
				 M744.9,627l-22.8,1.3c-5.8,0.5-10.3,5.6-10,11.4l1.2,22.4l44.2-2.4l-1.2-22.4c-0.3-5.8-5.1-10.2-10.8-10.2
				C745.3,627,745.1,627,744.9,627"/>
		</defs>
		<clipPath id="SVGID_19_">
			<use xlink:href="#SVGID_18_"  style="overflow:visible;"/>
		</clipPath>
		
			<linearGradient id="SVGID_20_" gradientUnits="userSpaceOnUse" x1="0" y1="1037.22" x2="1" y2="1037.22" gradientTransform="matrix(45.4162 0 0 -45.4162 712.1126 47751.0313)">
			<stop  offset="0" style="stop-color:#FFE75C"/>
			<stop  offset="1" style="stop-color:#FF2A00"/>
		</linearGradient>
		<rect x="711.8" y="627" class="st9" width="45.7" height="35.1"/>
	</g>
	<g class="st0">
		<defs>
			<polygon id="SVGID_21_" points="727.8,617.8 725.3,622.9 725.3,633.5 733.6,639.4 735.4,638.5 736.5,632.5 739.5,633 
				740.6,627.3 734.8,618.7 736.7,610.8 729.8,609.5 			"/>
		</defs>
		<clipPath id="SVGID_22_">
			<use xlink:href="#SVGID_21_"  style="overflow:visible;"/>
		</clipPath>
		
			<linearGradient id="SVGID_23_" gradientUnits="userSpaceOnUse" x1="0" y1="1037.2042" x2="1" y2="1037.2042" gradientTransform="matrix(20.7902 -5.9122 -5.9122 -20.7902 6858.1587 22190.1406)">
			<stop  offset="0" style="stop-color:#FFFFFF"/>
			<stop  offset="1" style="stop-color:#AAD0FF"/>
		</linearGradient>
		<polygon class="st10" points="717.4,611.8 739.5,605.5 748.5,637.2 726.4,643.4 		"/>
	</g>
	<g class="st0">
		<defs>
			<path id="SVGID_24_" d="M749.5,376.3c-9.9,31.3-22.3,238.3-22.3,238.3l12.7,4.3L790.5,439L779,347c0,0-0.3,0-0.7,0
				C774.7,346.9,758.3,348.5,749.5,376.3"/>
		</defs>
		<clipPath id="SVGID_25_">
			<use xlink:href="#SVGID_24_"  style="overflow:visible;"/>
		</clipPath>
		
			<linearGradient id="SVGID_26_" gradientUnits="userSpaceOnUse" x1="-2.893716e-006" y1="1037.22" x2="1" y2="1037.22" gradientTransform="matrix(63.2769 0 0 -63.2769 727.2441 66115.0078)">
			<stop  offset="0" style="stop-color:#3EA8FF"/>
			<stop  offset="1" style="stop-color:#5E4AED"/>
		</linearGradient>
		<rect x="727.2" y="346.9" class="st11" width="63.3" height="271.9"/>
	</g>
	<g class="st0">
		<defs>
			<rect id="SVGID_27_" width="1088.6" height="1037.2"/>
		</defs>
		<clipPath id="SVGID_28_">
			<use xlink:href="#SVGID_27_"  style="overflow:visible;"/>
		</clipPath>
		<path class="st12" d="M787.9,980.8l-2.2,1.1l-5,2.4l-10.2-0.7c0,0,1.7,6.1,8.1,7.1l13.6,1l0.4-5.2l2.5,0.2l-0.4,5.2l5.4,0.4
			l0.7-10.4l-10.7-1.1"/>
	</g>
	<g class="st0">
		<defs>
			<path id="SVGID_29_" d="M771.1,753.4l23.5,69.6l-3.8,159.5l6.6-0.8C853.1,801.1,813.9,760,813.9,760l17-126.5l-14.9-1.3
				L771.1,753.4z"/>
		</defs>
		<clipPath id="SVGID_30_">
			<use xlink:href="#SVGID_29_"  style="overflow:visible;"/>
		</clipPath>
		
			<linearGradient id="SVGID_31_" gradientUnits="userSpaceOnUse" x1="-9.187391e-006" y1="1037.22" x2="1" y2="1037.22" gradientTransform="matrix(59.7903 0 0 -59.7903 771.1315 62822.9883)">
			<stop  offset="0" style="stop-color:#3EA8FF"/>
			<stop  offset="1" style="stop-color:#5E4AED"/>
		</linearGradient>
		<rect x="771.1" y="632.2" class="st13" width="81.9" height="350.4"/>
	</g>
	<g class="st0">
		<defs>
			<path id="SVGID_32_" d="M781.9,342L740,414.7l3,188.6l103-15.3l-23.3-79.9l34.9-111.3c0.9-3,1.2-6.1,0.8-9.2l-1.9-15.8
				c-0.9-7.2-4.9-13.7-10.9-17.7l-32.7-21.7L781.9,342z"/>
		</defs>
		<clipPath id="SVGID_33_">
			<use xlink:href="#SVGID_32_"  style="overflow:visible;"/>
		</clipPath>
		
			<linearGradient id="SVGID_34_" gradientUnits="userSpaceOnUse" x1="-8.229939e-006" y1="1037.22" x2="1" y2="1037.22" gradientTransform="matrix(118.6597 0 0 -118.6597 739.9869 123544.1719)">
			<stop  offset="0" style="stop-color:#3EA8FF"/>
			<stop  offset="1" style="stop-color:#5E4AED"/>
		</linearGradient>
		<rect x="740" y="332.5" class="st14" width="118.9" height="270.9"/>
	</g>
	<g class="st0">
		<defs>
			<path id="SVGID_35_" d="M752.4,600.8l27.2,386.1l11.2-0.5c50.4-165.4,17.3-216.6,17.3-216.6l30.9-163l-5.2-18.1L752.4,600.8z"/>
		</defs>
		<clipPath id="SVGID_36_">
			<use xlink:href="#SVGID_35_"  style="overflow:visible;"/>
		</clipPath>
		
			<linearGradient id="SVGID_37_" gradientUnits="userSpaceOnUse" x1="-7.043054e-007" y1="1037.22" x2="1" y2="1037.22" gradientTransform="matrix(86.6601 0 0 -86.6601 752.3611 90673.3984)">
			<stop  offset="0" style="stop-color:#3EA8FF"/>
			<stop  offset="1" style="stop-color:#5E4AED"/>
		</linearGradient>
		<rect x="752.4" y="588.7" class="st15" width="88.8" height="398.2"/>
	</g>
	<g class="st0">
		<defs>
			<path id="SVGID_38_" d="M761.9,293.7l-11.4,11.6l4.5,4.4c0,0-2.4,24.3,19.3,19l5.8,9.5l8.2,16.1l21.2-7.4l8.9-9l-11.6-12.7
				c0,0-15.6-44.6-29.1-54.1L761.9,293.7z"/>
		</defs>
		<clipPath id="SVGID_39_">
			<use xlink:href="#SVGID_38_"  style="overflow:visible;"/>
		</clipPath>
		
			<linearGradient id="SVGID_40_" gradientUnits="userSpaceOnUse" x1="1.797453e-006" y1="1037.22" x2="1" y2="1037.22" gradientTransform="matrix(67.913 0 0 -67.913 750.4628 70753.4844)">
			<stop  offset="0" style="stop-color:#FFFAC0"/>
			<stop  offset="0.5439" style="stop-color:#FFC880"/>
			<stop  offset="1" style="stop-color:#EF6262"/>
		</linearGradient>
		<rect x="750.5" y="271.2" class="st16" width="67.9" height="83.2"/>
	</g>
	<g class="st0">
		<defs>
			<path id="SVGID_41_" d="M771.4,277.6c0,0,13.3,0.5,16,5.1c2.7,4.6-9.1,25.2-9.1,25.2l3.2,3.2l11.1-11.3c0,0,9,3.8,5.2,10.2
				l-5.1,5.2l14.1,10.1l17-37.8l-7.4-13.7c0,0-21-10.7-34.5-10.7C774.1,263.1,768.9,266.6,771.4,277.6"/>
		</defs>
		<clipPath id="SVGID_42_">
			<use xlink:href="#SVGID_41_"  style="overflow:visible;"/>
		</clipPath>
		
			<linearGradient id="SVGID_43_" gradientUnits="userSpaceOnUse" x1="0" y1="1037.22" x2="1" y2="1037.22" gradientTransform="matrix(53.0678 0 0 -53.0678 770.7471 55337.1875)">
			<stop  offset="0" style="stop-color:#3EA8FF"/>
			<stop  offset="1" style="stop-color:#5E4AED"/>
		</linearGradient>
		<rect x="768.9" y="263.1" class="st17" width="54.9" height="62.2"/>
	</g>
	<g class="st0">
		<defs>
			<path id="SVGID_44_" d="M784.8,324.2l-10.6,4.5l6.4,10.6l15.4-3.1l10.8-10.9l-4.2-3l-6.5-4.6c6.9-20-3.2-25-3.2-25L784.8,324.2z"
				/>
		</defs>
		<clipPath id="SVGID_45_">
			<use xlink:href="#SVGID_44_"  style="overflow:visible;"/>
		</clipPath>
		
			<linearGradient id="SVGID_46_" gradientUnits="userSpaceOnUse" x1="0" y1="1037.1415" x2="1" y2="1037.1415" gradientTransform="matrix(-22.466 -23.9957 -23.9957 22.466 25697.1953 -22963.3926)">
			<stop  offset="0" style="stop-color:#FFFAC0"/>
			<stop  offset="0.5439" style="stop-color:#FFC880"/>
			<stop  offset="1" style="stop-color:#EF6262"/>
		</linearGradient>
		<polygon class="st18" points="789.5,355.6 750.9,314.5 791.6,276.4 830.1,317.5 		"/>
	</g>
	<g class="st0">
		<defs>
			<rect id="SVGID_47_" width="1088.6" height="1037.2"/>
		</defs>
		<clipPath id="SVGID_48_">
			<use xlink:href="#SVGID_47_"  style="overflow:visible;"/>
		</clipPath>
		<path class="st19" d="M780.3,984.4l-2.2,1.1l-5,2.4l-10.2-0.7c0,0,1.7,6.1,8.1,7.1l13.6,1l0.4-5.2l2.5,0.2l-0.4,5.2l5.4,0.4
			l0.7-10.4l-10.7-1.1"/>
		<polygon class="st20" points="786,362.6 739.9,418.5 830.3,346 820.2,339.2 		"/>
	</g>
	<g class="st0">
		<defs>
			<polygon id="SVGID_49_" points="779.7,352.2 794.3,369.4 822.2,334.6 810.2,326.8 			"/>
		</defs>
		<clipPath id="SVGID_50_">
			<use xlink:href="#SVGID_49_"  style="overflow:visible;"/>
		</clipPath>
		
			<linearGradient id="SVGID_51_" gradientUnits="userSpaceOnUse" x1="1.726481e-005" y1="1037.22" x2="1" y2="1037.22" gradientTransform="matrix(42.4228 0 0 -42.4228 779.7433 44349.8906)">
			<stop  offset="0" style="stop-color:#3EA8FF"/>
			<stop  offset="1" style="stop-color:#5E4AED"/>
		</linearGradient>
		<rect x="779.7" y="326.8" class="st21" width="42.4" height="42.6"/>
	</g>
	<g class="st0">
		<defs>
			<polygon id="SVGID_52_" points="753.2,604.5 835.5,596.2 833.9,588.7 			"/>
		</defs>
		<clipPath id="SVGID_53_">
			<use xlink:href="#SVGID_52_"  style="overflow:visible;"/>
		</clipPath>
		
			<linearGradient id="SVGID_54_" gradientUnits="userSpaceOnUse" x1="1.186071e-005" y1="1037.22" x2="1" y2="1037.22" gradientTransform="matrix(82.336 0 0 -82.336 753.205 85997.1172)">
			<stop  offset="0" style="stop-color:#3EA8FF"/>
			<stop  offset="1" style="stop-color:#5E4AED"/>
		</linearGradient>
		<rect x="753.2" y="588.7" class="st22" width="82.3" height="15.8"/>
	</g>
	<g class="st0">
		<defs>
			<polygon id="SVGID_55_" points="760.1,549.6 761.9,553.4 765.3,568.4 801.1,552.5 795.8,538.3 			"/>
		</defs>
		<clipPath id="SVGID_56_">
			<use xlink:href="#SVGID_55_"  style="overflow:visible;"/>
		</clipPath>
		
			<linearGradient id="SVGID_57_" gradientUnits="userSpaceOnUse" x1="-1.042043e-005" y1="1037.22" x2="1" y2="1037.22" gradientTransform="matrix(41.0008 0 0 -41.0008 760.1124 43080.2383)">
			<stop  offset="0" style="stop-color:#3EA8FF"/>
			<stop  offset="1" style="stop-color:#5E4AED"/>
		</linearGradient>
		<rect x="760.1" y="538.3" class="st23" width="41" height="30.1"/>
	</g>
	<g class="st0">
		<defs>
			<path id="SVGID_58_" d="M773.9,364.2l8.4,1.1l3-6.5l-5.4-6.7c-0.3-0.5-1.1-0.8-2-0.8C775,351.4,771,354.2,773.9,364.2"/>
		</defs>
		<clipPath id="SVGID_59_">
			<use xlink:href="#SVGID_58_"  style="overflow:visible;"/>
		</clipPath>
		
			<linearGradient id="SVGID_60_" gradientUnits="userSpaceOnUse" x1="0" y1="1037.22" x2="1" y2="1037.22" gradientTransform="matrix(12.2998 0 0 -12.2998 772.8848 13116.0225)">
			<stop  offset="0" style="stop-color:#FFE75C"/>
			<stop  offset="1" style="stop-color:#FF2A00"/>
		</linearGradient>
		<rect x="771" y="351.4" class="st24" width="14.2" height="13.9"/>
	</g>
	<g class="st0">
		<defs>
			<path id="SVGID_61_" d="M749.5,405.6l15.3-16.4l17.4-23.9l-8.4-1.1C773.9,364.2,754.6,387.1,749.5,405.6"/>
		</defs>
		<clipPath id="SVGID_62_">
			<use xlink:href="#SVGID_61_"  style="overflow:visible;"/>
		</clipPath>
		
			<linearGradient id="SVGID_63_" gradientUnits="userSpaceOnUse" x1="-1.120119e-005" y1="1037.22" x2="1" y2="1037.22" gradientTransform="matrix(32.6939 0 0 -32.6939 749.5374 34295.7148)">
			<stop  offset="0" style="stop-color:#FFE75C"/>
			<stop  offset="1" style="stop-color:#FF2A00"/>
		</linearGradient>
		<rect x="749.5" y="364.2" class="st25" width="32.7" height="41.4"/>
	</g>
	<g class="st0">
		<defs>
			<path id="SVGID_64_" d="M711.7,470l-113.4,39.3l1.3,14.1l132.4-18.9l107.5-86c0,0,40.8-55.7-21.6-58.1L711.7,470z"/>
		</defs>
		<clipPath id="SVGID_65_">
			<use xlink:href="#SVGID_64_"  style="overflow:visible;"/>
		</clipPath>
		
			<linearGradient id="SVGID_66_" gradientUnits="userSpaceOnUse" x1="-1.440279e-006" y1="1037.22" x2="1" y2="1037.22" gradientTransform="matrix(254.264 0 0 -254.264 598.2223 264169.5938)">
			<stop  offset="0" style="stop-color:#3EA8FF"/>
			<stop  offset="1" style="stop-color:#5E4AED"/>
		</linearGradient>
		<rect x="598.2" y="360.4" class="st26" width="282" height="163"/>
	</g>
	<g class="st0">
		<defs>
			<rect id="SVGID_67_" width="1088.6" height="1037.2"/>
		</defs>
		<clipPath id="SVGID_68_">
			<use xlink:href="#SVGID_67_"  style="overflow:visible;"/>
		</clipPath>
		<polygon class="st27" points="598.6,513.4 584.3,504.6 576.1,509 573.1,513.4 580.6,523.4 598.2,521.4 		"/>
		<polygon class="st27" points="566.4,513.3 573.1,513.4 585.9,513.3 590.3,521.4 578.4,529.2 566.4,523.4 		"/>
	</g>
	<g class="st0">
		<defs>
			<polygon id="SVGID_69_" points="578.4,515.1 581.7,519.8 590.3,521.4 584.7,519.8 579.7,514 573.1,513.4 			"/>
		</defs>
		<clipPath id="SVGID_70_">
			<use xlink:href="#SVGID_69_"  style="overflow:visible;"/>
		</clipPath>
		
			<linearGradient id="SVGID_71_" gradientUnits="userSpaceOnUse" x1="-1.064045e-005" y1="1037.22" x2="1" y2="1037.22" gradientTransform="matrix(17.2084 0 0 -17.2084 573.1162 18366.3398)">
			<stop  offset="0" style="stop-color:#FFFFFF"/>
			<stop  offset="1" style="stop-color:#AAD0FF"/>
		</linearGradient>
		<rect x="573.1" y="513.4" class="st28" width="17.2" height="8"/>
	</g>
	<g class="st0">
		<defs>
			<path id="SVGID_72_" d="M387.4,357.9c-18.9,12.1,29,94.1,29,94.1l63.9,35.2l88.3,37.2l4.5-11l-79.3-53.2c0,0-71.8-72.6-87.5-89.5
				c-10.6-11.4-15.6-13.3-17.6-13.3C387.7,357.5,387.4,357.9,387.4,357.9"/>
		</defs>
		<clipPath id="SVGID_73_">
			<use xlink:href="#SVGID_72_"  style="overflow:visible;"/>
		</clipPath>
		
			<linearGradient id="SVGID_74_" gradientUnits="userSpaceOnUse" x1="0" y1="1037.22" x2="1" y2="1037.22" gradientTransform="matrix(190.1745 0 0 -190.1745 382.9417 197693.75)">
			<stop  offset="0" style="stop-color:#FFE75C"/>
			<stop  offset="1" style="stop-color:#FF2A00"/>
		</linearGradient>
		<rect x="368.4" y="357.5" class="st29" width="204.7" height="166.9"/>
	</g>
	<g class="st0">
		<defs>
			<path id="SVGID_75_" d="M364,290.8c-5,0-9.4,15.6-5,22.4c0,0,3,8.6-2.3,22.1c-5.2,13.4,0.1,9,0.1,9l39.4,21.1l-7.1-32.9
				C389,332.4,369,290.8,364,290.8C364,290.8,364,290.8,364,290.8"/>
		</defs>
		<clipPath id="SVGID_76_">
			<use xlink:href="#SVGID_75_"  style="overflow:visible;"/>
		</clipPath>
		
			<linearGradient id="SVGID_77_" gradientUnits="userSpaceOnUse" x1="0" y1="1037.2386" x2="1" y2="1037.2386" gradientTransform="matrix(-38.6327 4.5791 -4.5791 -38.6327 5141.1221 40397.3086)">
			<stop  offset="0" style="stop-color:#FFFAC0"/>
			<stop  offset="0.5439" style="stop-color:#FFC880"/>
			<stop  offset="1" style="stop-color:#EF6262"/>
		</linearGradient>
		<polygon class="st30" points="395.5,285.6 342.8,291.8 352.1,370.6 404.9,364.3 		"/>
	</g>
	<g class="st0">
		<defs>
			<path id="SVGID_78_" d="M366.4,291.2c11,38.1,32.5,35,32.5,35c11.8-12-2.3-52.2-2.3-52.2c-1.9-0.5-3.7-0.8-5.4-0.8
				C376,273.3,366.4,291.2,366.4,291.2"/>
		</defs>
		<clipPath id="SVGID_79_">
			<use xlink:href="#SVGID_78_"  style="overflow:visible;"/>
		</clipPath>
		
			<linearGradient id="SVGID_80_" gradientUnits="userSpaceOnUse" x1="-1.723649e-005" y1="1037.1796" x2="1" y2="1037.1796" gradientTransform="matrix(37.181 0 0 -37.181 366.4426 38864.5859)">
			<stop  offset="0" style="stop-color:#FFFAC0"/>
			<stop  offset="0.5439" style="stop-color:#FFC880"/>
			<stop  offset="1" style="stop-color:#EF6262"/>
		</linearGradient>
		<rect x="366.4" y="273.3" class="st31" width="44.3" height="56"/>
	</g>
	<g class="st0">
		<defs>
			<path id="SVGID_81_" d="M395.6,261.1c-13.9,4.9-37.9,6.8-37.9,6.8c-20.8,31.1,10,54.5,10,54.5l-0.6-6.4
				c-12.2-10.7-6.5-17.6-6.5-17.6c12.5-1.9,9.4,13.7,9.4,13.7c16.9,34.7,31.4,17.8,31.4,17.8c2.7-20.3,1-14.1,1-14.1
				c-28.2-0.9-30.2-22.4-30.2-22.4c2.2-19.4,21-12.3,21-12.3c9-0.2,12.1-5.7,13-11.5c0.7-5-3.3-9-7.9-9
				C397.4,260.6,396.5,260.8,395.6,261.1"/>
		</defs>
		<clipPath id="SVGID_82_">
			<use xlink:href="#SVGID_81_"  style="overflow:visible;"/>
		</clipPath>
		
			<linearGradient id="SVGID_83_" gradientUnits="userSpaceOnUse" x1="0" y1="1037.1051" x2="1" y2="1037.1051" gradientTransform="matrix(55.7408 0 0 -55.7408 350.5348 58112.8203)">
			<stop  offset="0" style="stop-color:#3EA8FF"/>
			<stop  offset="1" style="stop-color:#5E4AED"/>
		</linearGradient>
		<rect x="336.9" y="260.6" class="st32" width="70" height="86.2"/>
	</g>
	<g class="st0">
		<defs>
			<path id="SVGID_84_" d="M365.3,263.8l-7.5,4.1c15.9,2.9,41.4-7.3,41.4-7.3L365.3,263.8z"/>
		</defs>
		<clipPath id="SVGID_85_">
			<use xlink:href="#SVGID_84_"  style="overflow:visible;"/>
		</clipPath>
		
			<linearGradient id="SVGID_86_" gradientUnits="userSpaceOnUse" x1="-4.419207e-006" y1="1037.1914" x2="1" y2="1037.1914" gradientTransform="matrix(41.434 0 0 -41.434 357.7592 43240.7305)">
			<stop  offset="0" style="stop-color:#3EA8FF"/>
			<stop  offset="1" style="stop-color:#5E4AED"/>
		</linearGradient>
		<rect x="357.8" y="260.7" class="st33" width="41.4" height="10.1"/>
	</g>
	<g class="st0">
		<defs>
			<rect id="SVGID_87_" width="1088.6" height="1037.2"/>
		</defs>
		<clipPath id="SVGID_88_">
			<use xlink:href="#SVGID_87_"  style="overflow:visible;"/>
		</clipPath>
		<path class="st34" d="M381.7,983.6l2.2,1.1l5,2.4l10.2-0.7c0,0-1.7,6.1-8.1,7.1l-13.6,1l-0.4-5.2l-2.5,0.2l0.4,5.2l-5.4,0.4
			l-0.7-10.4l10.7-1.1"/>
	</g>
	<g class="st0">
		<defs>
			<path id="SVGID_89_" d="M338.7,636.2l17,126.5c0,0-39.2,41.1,16.5,221.8l6.6,0.8l-3.8-159.5l23.5-69.6l-44.9-121.2L338.7,636.2z"
				/>
		</defs>
		<clipPath id="SVGID_90_">
			<use xlink:href="#SVGID_89_"  style="overflow:visible;"/>
		</clipPath>
		
			<linearGradient id="SVGID_91_" gradientUnits="userSpaceOnUse" x1="0" y1="1037.22" x2="1" y2="1037.22" gradientTransform="matrix(59.7903 0 0 -59.7903 338.6678 62825.7461)">
			<stop  offset="0" style="stop-color:#3EA8FF"/>
			<stop  offset="1" style="stop-color:#5E4AED"/>
		</linearGradient>
		<rect x="316.5" y="634.9" class="st35" width="81.9" height="350.4"/>
	</g>
	<g class="st0">
		<defs>
			<path id="SVGID_92_" d="M324,357c-6,4-10,10.5-10.9,17.7l-1.9,15.8c-0.4,3.1-0.1,6.2,0.8,9.2l34.9,111.3l-23.3,79.9l103,15.3
				l3-188.6L389.8,355l-33.1-19.7L324,357z"/>
		</defs>
		<clipPath id="SVGID_93_">
			<use xlink:href="#SVGID_92_"  style="overflow:visible;"/>
		</clipPath>
		
			<linearGradient id="SVGID_94_" gradientUnits="userSpaceOnUse" x1="0" y1="1037.22" x2="1" y2="1037.22" gradientTransform="matrix(118.6597 0 0 -118.6597 310.9429 123546.8672)">
			<stop  offset="0" style="stop-color:#FFE75C"/>
			<stop  offset="1" style="stop-color:#FF2A00"/>
		</linearGradient>
		<rect x="310.7" y="335.2" class="st36" width="118.9" height="270.9"/>
	</g>
	<g class="st0">
		<defs>
			<path id="SVGID_95_" d="M330.6,609.6l30.9,163c0,0-33.1,51.2,17.3,216.6l11.2,0.5l27.2-386.1l-81.5-12.1L330.6,609.6z"/>
		</defs>
		<clipPath id="SVGID_96_">
			<use xlink:href="#SVGID_95_"  style="overflow:visible;"/>
		</clipPath>
		
			<linearGradient id="SVGID_97_" gradientUnits="userSpaceOnUse" x1="0" y1="1037.22" x2="1" y2="1037.22" gradientTransform="matrix(86.6601 0 0 -86.6601 330.5684 90676.1563)">
			<stop  offset="0" style="stop-color:#3EA8FF"/>
			<stop  offset="1" style="stop-color:#5E4AED"/>
		</linearGradient>
		<rect x="328.4" y="591.5" class="st37" width="88.8" height="398.2"/>
	</g>
	<g class="st0">
		<defs>
			<rect id="SVGID_98_" width="1088.6" height="1037.2"/>
		</defs>
		<clipPath id="SVGID_99_">
			<use xlink:href="#SVGID_98_"  style="overflow:visible;"/>
		</clipPath>
		<path class="st38" d="M389.3,987.1l2.2,1.1l5,2.4l10.2-0.7c0,0-1.7,6.1-8.1,7.1l-13.6,1l-0.4-5.2l-2.5,0.2l0.4,5.2l-5.4,0.4
			l-0.7-10.4l10.7-1.1"/>
	</g>
	<g class="st0">
		<defs>
			<polygon id="SVGID_100_" points="339.3,348.7 429.7,421.2 383.6,365.4 349.4,341.9 			"/>
		</defs>
		<clipPath id="SVGID_101_">
			<use xlink:href="#SVGID_100_"  style="overflow:visible;"/>
		</clipPath>
		
			<linearGradient id="SVGID_102_" gradientUnits="userSpaceOnUse" x1="4.051151e-006" y1="1037.22" x2="1" y2="1037.22" gradientTransform="matrix(90.3968 0 0 -90.3968 339.2946 94142.9141)">
			<stop  offset="0" style="stop-color:#3EA8FF"/>
			<stop  offset="1" style="stop-color:#5E4AED"/>
		</linearGradient>
		<rect x="339.3" y="341.9" class="st39" width="90.4" height="79.3"/>
	</g>
	<g class="st0">
		<defs>
			<rect id="SVGID_103_" width="1088.6" height="1037.2"/>
		</defs>
		<clipPath id="SVGID_104_">
			<use xlink:href="#SVGID_103_"  style="overflow:visible;"/>
		</clipPath>
		<polygon class="st40" points="359.4,329.6 347.4,337.3 375.3,372.1 389.8,355 		"/>
		<polygon class="st41" points="416.4,607.3 335.7,591.5 334,599 		"/>
	</g>
	<g class="st0">
		<defs>
			<polygon id="SVGID_105_" points="368.5,555.2 404.3,571.2 407.7,556.2 409.5,552.4 373.7,541.1 			"/>
		</defs>
		<clipPath id="SVGID_106_">
			<use xlink:href="#SVGID_105_"  style="overflow:visible;"/>
		</clipPath>
		
			<linearGradient id="SVGID_107_" gradientUnits="userSpaceOnUse" x1="1.339771e-005" y1="1037.22" x2="1" y2="1037.22" gradientTransform="matrix(41.0008 0 0 -41.0008 368.4764 43082.9688)">
			<stop  offset="0" style="stop-color:#3EA8FF"/>
			<stop  offset="1" style="stop-color:#5E4AED"/>
		</linearGradient>
		<rect x="368.5" y="541.1" class="st42" width="41" height="30.1"/>
	</g>
	<g class="st0">
		<defs>
			<rect id="SVGID_108_" width="1088.6" height="1037.2"/>
		</defs>
		<clipPath id="SVGID_109_">
			<use xlink:href="#SVGID_108_"  style="overflow:visible;"/>
		</clipPath>
		<path class="st43" d="M389.8,355c1.2-1.9,9.7-1.3,5.9,12l-8.4,1.1l-3-6.5L389.8,355z"/>
	</g>
	<g class="st0">
		<defs>
			<path id="SVGID_110_" d="M387.4,368.1l17.4,23.9l15.3,16.4c-5.1-18.5-24.3-41.4-24.3-41.4L387.4,368.1z"/>
		</defs>
		<clipPath id="SVGID_111_">
			<use xlink:href="#SVGID_110_"  style="overflow:visible;"/>
		</clipPath>
		
			<linearGradient id="SVGID_112_" gradientUnits="userSpaceOnUse" x1="-9.334326e-006" y1="1037.22" x2="1" y2="1037.22" gradientTransform="matrix(32.6939 0 0 -32.6939 387.3583 34298.4727)">
			<stop  offset="0" style="stop-color:#FFE75C"/>
			<stop  offset="1" style="stop-color:#FF2A00"/>
		</linearGradient>
		<rect x="387.4" y="367" class="st44" width="32.7" height="41.4"/>
	</g>
	<g class="st0">
		<defs>
			<path id="SVGID_113_" d="M315,402.3c7.5,39.2,74,80.6,74,80.6l48.7-91.5l-14.2-2.7l-36.1,47c0,0-22.5-69.9-48.7-74.5
				C338.7,361.1,307.5,363.1,315,402.3"/>
		</defs>
		<clipPath id="SVGID_114_">
			<use xlink:href="#SVGID_113_"  style="overflow:visible;"/>
		</clipPath>
		
			<linearGradient id="SVGID_115_" gradientUnits="userSpaceOnUse" x1="0" y1="1037.22" x2="1" y2="1037.22" gradientTransform="matrix(123.8637 0 0 -123.8637 313.8294 128895.9297)">
			<stop  offset="0" style="stop-color:#FFE75C"/>
			<stop  offset="1" style="stop-color:#FF2A00"/>
		</linearGradient>
		<rect x="307.5" y="361.1" class="st45" width="130.2" height="121.8"/>
	</g>
	<g class="st0">
		<defs>
			<rect id="SVGID_116_" width="1088.6" height="1037.2"/>
		</defs>
		<clipPath id="SVGID_117_">
			<use xlink:href="#SVGID_116_"  style="overflow:visible;"/>
		</clipPath>
		<path class="st46" d="M485.4,410.9c-12.3,4.9-40.4-23.2-40.4-23.2s-8.6,0.7-22.6-1.8c-11-2-25.4-5.9-41.6-13.8
			c-36.8-17.9-105.2-5.1-50.3,161c40.3,121.7-116.2,243.8-224.3,209.6c-39.4-12.4-72.4-45.6-87-107.1C4,572.1,15,507.2,53.9,454.4
			c57.6-78.1,171.7-144,271-135.5c16.9,1.4,33.9,6.6,48,16.3c12.9,8.9,20,23.2,33.1,31.7c8.1,5.3,35.6,10.2,35.6,9.2
			c0,0,24.1-18.4,47.7-6.7C512.9,381.1,497.7,406,485.4,410.9"/>
		<path class="st47" d="M428.8,397.7l4.5-7.6l11.8-2.4l-3.5-18.3L425,367c0,0-3.2,6.5-4.6,14l3.3,3.4l-4.1,9.6L428.8,397.7z"/>
		<path class="st48" d="M478,372.1c0,0,18.3-1.1,17.3,15.6c-1.1,16.6-12,24.4-27.7,10c0,0,25.5,7.6,18-9c-7.5-16.6-12-15.7-23.9-9.8
			C461.6,378.8,469.3,370.7,478,372.1"/>
		<path class="st48" d="M423.7,384.5l-1.3,1.4c-11-2-25.4-5.9-41.6-13.8c-36.8-17.9-105.2-5-50.3,161
			c40.3,121.7-116.2,243.8-224.3,209.6c255.8-100.3,161.4-292,170.6-348.3c9.7-59.1,89-40.4,106.7-29
			C401.3,376.8,423.7,384.5,423.7,384.5"/>
		<path class="st49" d="M130.2,650.8c-17.7-3.4-30.2-10.9-37.4-22.7c-7.2-11.8-9.7-28.7-7.2-50.7l40.1-0.4
			c-1.7,13.2-1.5,22.9,0.6,29c2.1,6.2,6.1,9.6,12.1,10.5c7.7,1.1,12.3-3.4,13.7-13.5c1.1-8,0.3-15.2-2.6-21.5
			c-2.9-6.3-7.7-13.4-14.4-21.3l-16-18.3c-8.1-9.5-13.9-18.6-17.5-27.1c-3.6-8.5-4.5-18.9-2.8-31.1c2.3-16.1,8.7-28.2,19.1-36.2
			c10.5-8,23.9-11.5,40.1-10.4l3.5-24.4l13.1,1.9l-3.4,24.2c17.5,3.5,28.5,11.3,33,23.4c4.5,12.1,5.9,26,4.2,41.9l-40.5-0.8
			c1.2-11,1.3-19,0.4-23.9c-1-4.9-4.1-7.7-9.4-8.3c-4.1-0.6-7.5,0.6-10.1,3.7c-2.6,3-4.2,6.6-4.8,10.7c-1,7.4-0.2,13.6,2.4,18.8
			c2.7,5.2,6.9,11.2,12.8,18.2l15.3,17.6c8.9,10.9,15.5,21.5,19.8,31.8c4.2,10.3,5.4,22,3.5,35.2c-2,13.9-7.9,25.1-17.7,33.5
			c-9.8,8.5-22.1,12.4-36.6,11.7l-3.6,25.7l-13.1-1.9L130.2,650.8z"/>
		<path class="st48" d="M445,387.7c0,0,8.1,23.7,33.5,25.1l6.9-2C485.4,410.9,451.2,395.4,445,387.7"/>
	</g>
</g>
</svg>
